<svg fill="#FD7E14" xmlns="http://www.w3.org/2000/svg"  viewBox="0 0 50 50" width="100px" height="100px"><path d="M 25 2 C 11.652344 2 4 9.726563 4 23.199219 C 4 30.972656 10.15625 35.058594 13.460938 37.257813 C 14.191406 37.742188 14.824219 38.164063 15.144531 38.460938 C 15.441406 38.882813 15.722656 39.660156 16.023438 40.480469 C 17.113281 43.476563 18.761719 48 25 48 C 31.214844 48 32.9375 43.34375 33.964844 40.5625 C 34.277344 39.710938 34.574219 38.90625 34.824219 38.589844 C 35.136719 38.261719 35.847656 37.78125 36.667969 37.230469 C 39.929688 35.039063 46 30.957031 46 23.199219 C 46 9.726563 38.347656 2 25 2 Z M 13.601563 27.398438 C 10.5 24.300781 10.800781 19.101563 11.5 18.398438 C 12.199219 17.699219 17.398438 17.398438 20.5 20.5 C 23.601563 23.699219 23.300781 28.800781 22.601563 29.5 C 21.898438 30.199219 16.699219 30.5 13.601563 27.398438 Z M 24 37.101563 C 24 38 23.398438 38 22.898438 38 C 22.300781 38 21.800781 38 21.800781 37.101563 C 21.800781 36.300781 24 33 24 33 C 24 33 24 35.800781 24 37.101563 Z M 27.101563 38 C 26.601563 38 26 38 26 37.101563 C 26 35.800781 26 33 26 33 C 26 33 28.199219 36.300781 28.199219 37.101563 C 28.199219 38 27.699219 38 27.101563 38 Z M 36.5 27.398438 C 33.398438 30.5 28.199219 30.199219 27.5 29.5 C 26.800781 28.800781 26.5 23.601563 29.601563 20.5 C 32.699219 17.398438 37.902344 17.699219 38.601563 18.398438 C 39.300781 19.101563 39.601563 24.300781 36.5 27.398438 Z"/></svg>